<mxfile host="app.diagrams.net" agent="Mozilla/5.0 (Windows NT 10.0; Win64; x64) AppleWebKit/537.36 (KHTML, like Gecko) Chrome/132.0.0.0 Safari/537.36 Edg/132.0.0.0" version="26.0.7">
  <diagram name="Page-1" id="kOXIVf2nudK1E1ZrAn3t">
    <mxGraphModel>
      <root>
        <mxCell id="0" />
        <mxCell id="1" parent="0" />
        <mxCell id="2" value="ALPR" style="whiteSpace=wrap;strokeWidth=2;" vertex="1" parent="1">
          <mxGeometry x="129" y="8" width="96" height="54" as="geometry" />
        </mxCell>
        <mxCell id="3" value="Display" style="rounded=1;arcSize=20;strokeWidth=2" vertex="1" parent="1">
          <mxGeometry x="66" y="135" width="81" height="54" as="geometry" />
        </mxCell>
        <mxCell id="4" value="Algorithm" style="rounded=1;arcSize=20;strokeWidth=2" vertex="1" parent="1">
          <mxGeometry x="197" y="135" width="100" height="54" as="geometry" />
        </mxCell>
        <mxCell id="5" value="Database" style="rhombus;strokeWidth=2;whiteSpace=wrap;" vertex="1" parent="1">
          <mxGeometry x="117" y="261" width="120" height="120" as="geometry" />
        </mxCell>
        <mxCell id="6" value="Report" style="rounded=1;arcSize=20;strokeWidth=2" vertex="1" parent="1">
          <mxGeometry x="138" y="453" width="77" height="54" as="geometry" />
        </mxCell>
        <mxCell id="7" value="Decision" style="rhombus;strokeWidth=2;whiteSpace=wrap;" vertex="1" parent="1">
          <mxGeometry x="120" y="580" width="113" height="113" as="geometry" />
        </mxCell>
        <mxCell id="8" value="Enforcement" style="rhombus;strokeWidth=2;whiteSpace=wrap;" vertex="1" parent="1">
          <mxGeometry x="8" y="766" width="146" height="146" as="geometry" />
        </mxCell>
        <mxCell id="9" value="Violation" style="rhombus;strokeWidth=2;whiteSpace=wrap;" vertex="1" parent="1">
          <mxGeometry x="22" y="985" width="118" height="118" as="geometry" />
        </mxCell>
        <mxCell id="10" value="Notification" style="rhombus;strokeWidth=2;whiteSpace=wrap;" vertex="1" parent="1">
          <mxGeometry x="204" y="770" width="139" height="139" as="geometry" />
        </mxCell>
        <mxCell id="11" value="User" style="rhombus;strokeWidth=2;whiteSpace=wrap;" vertex="1" parent="1">
          <mxGeometry x="230" y="1001" width="86" height="86" as="geometry" />
        </mxCell>
        <mxCell id="12" value="License Plate" style="curved=1;startArrow=none;endArrow=block;exitX=0.19;exitY=1;entryX=0.5;entryY=-0.01;" edge="1" parent="1" source="2" target="3">
          <mxGeometry relative="1" as="geometry">
            <Array as="points">
              <mxPoint x="107" y="98" />
            </Array>
          </mxGeometry>
        </mxCell>
        <mxCell id="13" value="Recognition" style="curved=1;startArrow=none;endArrow=block;exitX=0.81;exitY=1;entryX=0.5;entryY=-0.01;" edge="1" parent="1" source="2" target="4">
          <mxGeometry relative="1" as="geometry">
            <Array as="points">
              <mxPoint x="247" y="98" />
            </Array>
          </mxGeometry>
        </mxCell>
        <mxCell id="14" value="Plate Info" style="curved=1;startArrow=none;endArrow=block;exitX=0.5;exitY=0.99;entryX=0.14;entryY=0;" edge="1" parent="1" source="3" target="5">
          <mxGeometry relative="1" as="geometry">
            <Array as="points">
              <mxPoint x="107" y="225" />
            </Array>
          </mxGeometry>
        </mxCell>
        <mxCell id="15" value="Processing" style="curved=1;startArrow=none;endArrow=block;exitX=0.5;exitY=0.99;entryX=0.86;entryY=0;" edge="1" parent="1" source="4" target="5">
          <mxGeometry relative="1" as="geometry">
            <Array as="points">
              <mxPoint x="247" y="225" />
            </Array>
          </mxGeometry>
        </mxCell>
        <mxCell id="16" value="Result" style="curved=1;startArrow=none;endArrow=block;exitX=0.5;exitY=1;entryX=0.51;entryY=0.01;" edge="1" parent="1" source="5" target="6">
          <mxGeometry relative="1" as="geometry">
            <Array as="points" />
          </mxGeometry>
        </mxCell>
        <mxCell id="17" value="Analysis" style="curved=1;startArrow=none;endArrow=block;exitX=0.51;exitY=1.01;entryX=0.5;entryY=0;" edge="1" parent="1" source="6" target="7">
          <mxGeometry relative="1" as="geometry">
            <Array as="points" />
          </mxGeometry>
        </mxCell>
        <mxCell id="18" value="Action" style="curved=1;startArrow=none;endArrow=block;exitX=0;exitY=0.99;entryX=0.5;entryY=0;" edge="1" parent="1" source="7" target="8">
          <mxGeometry relative="1" as="geometry">
            <Array as="points">
              <mxPoint x="81" y="730" />
            </Array>
          </mxGeometry>
        </mxCell>
        <mxCell id="19" value="Fine" style="curved=1;startArrow=none;endArrow=block;exitX=0.5;exitY=1;entryX=0.5;entryY=0;" edge="1" parent="1" source="8" target="9">
          <mxGeometry relative="1" as="geometry">
            <Array as="points" />
          </mxGeometry>
        </mxCell>
        <mxCell id="20" value="Recommendation" style="curved=1;startArrow=none;endArrow=block;exitX=1.01;exitY=0.99;entryX=0.5;entryY=0;" edge="1" parent="1" source="7" target="10">
          <mxGeometry relative="1" as="geometry">
            <Array as="points">
              <mxPoint x="273" y="730" />
            </Array>
          </mxGeometry>
        </mxCell>
        <mxCell id="21" value="Alert" style="curved=1;startArrow=none;endArrow=block;exitX=0.19;exitY=1;entryX=0.15;entryY=0;" edge="1" parent="1" source="10" target="11">
          <mxGeometry relative="1" as="geometry">
            <Array as="points">
              <mxPoint x="206" y="948" />
            </Array>
          </mxGeometry>
        </mxCell>
        <mxCell id="22" value="Acknowledgement" style="curved=1;startArrow=none;endArrow=block;exitX=0.79;exitY=0;entryX=0.74;entryY=1;" edge="1" parent="1" source="11" target="10">
          <mxGeometry relative="1" as="geometry">
            <Array as="points">
              <mxPoint x="327" y="948" />
            </Array>
          </mxGeometry>
        </mxCell>
      </root>
    </mxGraphModel>
  </diagram>
</mxfile>
